# xmcd
# Copyright (C) 1995-1998 Ti Kan
#
# Track frame offsets:
#       150
#       14043
#       27370
#       43285
#       61779
#       80823
#       95694
#       110566
#       124380
#       135227
#       147326
#
# Disc length: 2059 seconds
#
# Revision: 0
# Processed by: cddbd v1.5.2PL0 Copyright (c) Steve Scherf et al.
# Submitted via: CD-Import v1.0
#
DISCID=a108090b
DTITLE=Hell - Papst and Abstinenzler
DYEAR=1900
DGENRE=
TTITLE0=Öppis Mit Mänsche
TTITLE1=Blondi
TTITLE2=Parmesan
TTITLE3=Uneasy
TTITLE4=Gang Ab
TTITLE5=Blau
TTITLE6=Disco Blues
TTITLE7=Cräckpfiife
TTITLE8=Flickstübli
TTITLE9=Notkredit
TTITLE10=1:1
EXTD=
EXTT0=
EXTT1=
EXTT2=
EXTT3=
EXTT4=
EXTT5=
EXTT6=
EXTT7=
EXTT8=
EXTT9=
EXTT10=
PLAYORDER=
